<svg id="veriga_logo_" xmlns="http://www.w3.org/2000/svg" version="1.1" viewBox="0 0 228.079 51.499">
  <path d="M186.615,27.233c0-.353-.038-.68-.09-.982-.022-.136-.052-.264-.086-.394l-.093-.289-.023-.052c-.27-.67-.732-1.159-1.433-1.467l-.218-.087c-.126-.046-.246-.089-.374-.121l-.079-.014c-.452-.11-.956-.176-1.558-.176h-4.167c-1.702,0-3.139.975-3.139,2.541,0,1.53,1.302,2.608,3.139,2.608h1.112c.022,2.61-4.088,3.584-7.639,3.584-5.692,0-8.437-4.029-8.437-8.582,0-4.518,2.83-8.581,8.437-8.581,5.893,0,6.515,2.721,9.578,2.721,1.565,0,2.776-1.005,2.776-2.611,0-2.611-5.568-5.26-12.354-5.26-9.153,0-15.441,5.969-15.441,13.731,0,7.721,6.33,13.731,15.441,13.731,2.267,0,5.852-.793,8.915-2.435.33,1.25,1.45,2.184,2.792,2.184,1.602,0,2.896-1.309,2.896-2.917v-6.65c.007-.158.045-.315.045-.482ZM197.746,26.711h8.535l-4.182-10.821h-.09l-4.263,10.821ZM197.255,13.164c.761-1.714,2.508-3.093,4.8-3.093,2.384,0,4.042,1.308,4.807,3.093l8.799,20.301c.269.599.36,1.117.36,1.383,0,1.452-1.44,2.461-3.099,2.461-1.886,0-2.832-.821-3.279-1.94l-1.344-3.509h-12.483l-1.345,3.468c-.448,1.16-1.392,1.981-3.234,1.981-1.797,0-3.326-1.123-3.326-2.612,0-.599.224-1.046.322-1.232l9.022-20.301ZM146.56,13.203c0-1.863,1.43-2.907,3.365-2.907s3.369,1.044,3.369,2.907v21.191c0,1.87-1.435,2.915-3.369,2.915s-3.365-1.045-3.365-2.915V13.203ZM127.881,22.271h4.625c2.468,0,4.174-1.232,4.174-3.319,0-2.123-1.706-3.284-4.174-3.284h-4.625v6.603ZM121.146,13.429c0-1.791,1.215-2.91,3.453-2.91h7.907c6.913,0,11.181,2.576,11.181,8.433,0,4.103-3.727,6.453-8.309,7.049l7.634,6.79c.626.563.901,1.118.901,1.642,0,1.455-1.396,2.876-3.368,2.876-.814,0-1.891-.258-2.608-.976l-9.967-10.034h-.089v8.095c0,1.87-1.435,2.915-3.365,2.915s-3.37-1.045-3.37-2.915V13.429ZM99.902,13.764c0-1.865,1.13-3.245,3.506-3.245h11.134c2.157,0,3.191,1.268,3.191,2.576,0,1.267-1.082,2.573-3.191,2.573h-7.902v5.445h7.368c2.201,0,3.273,1.272,3.273,2.574,0,1.274-1.121,2.575-3.273,2.575h-7.368v5.676h8.306c2.163,0,3.188,1.265,3.188,2.571,0,1.265-1.079,2.571-3.188,2.571h-11.587c-1.971,0-3.457-1.117-3.457-2.792V13.764ZM70.995,14.362c-.234-.485-.319-.859-.319-1.381,0-1.567,1.657-2.685,3.452-2.685,1.532,0,2.478.819,3.058,1.828l6.963,15.523,6.959-15.523c.582-1.009,1.527-1.828,3.051-1.828,1.8,0,3.455,1.118,3.455,2.685,0,.522-.089.896-.311,1.381l-9.834,20.781c-.587,1.19-1.345,2.166-3.32,2.166s-2.744-.976-3.326-2.166l-9.828-20.781ZM32.231,36.776c-5.638,0-10.425-3.614-12.217-8.635h3.782c2.278,0,4.133-1.945,4.133-4.337s-1.855-4.342-4.133-4.342h-3.782c1.792-5.029,6.579-8.637,12.217-8.637s10.431,3.608,12.215,8.637h-3.788c-2.275,0-4.123,1.942-4.123,4.342s1.848,4.337,4.123,4.337h3.788c-1.788,5.021-6.574,8.635-12.215,8.635ZM58.331,19.462h-4.733c-2.015-9.961-10.816-17.462-21.367-17.462S12.884,9.501,10.868,19.462h-4.735c-2.279,0-4.133,1.942-4.133,4.342s1.854,4.337,4.133,4.337h4.735c2.016,9.961,10.814,17.461,21.363,17.461s19.352-7.5,21.367-17.461h4.733c2.283,0,4.124-1.945,4.124-4.337s-1.841-4.342-4.124-4.342ZM149.609,48.727v-1.422c0-.494.471-.661.74-.74l1.903-.604c.358-.113,1.007-.482,1.007-1.379v-1.243c0-.896-.481-1.634-2.295-1.634-1.803,0-2.262.738-2.262,1.634v.639c0,.123.045.179.168.179h.447c.113,0,.158-.056.158-.179v-.514c0-.662.325-1.087,1.489-1.087,1.187,0,1.5.425,1.5,1.087v1.129c0,.516-.437.717-.649.785l-2.083.693c-.302.102-.919.326-.919,1.008v2.162c0,.123.045.168.159.168h4.153c.112,0,.169-.045.169-.168v-.358l-.169-.156h-3.516ZM147.057,48.727l.168.156v.358c0,.123-.056.168-.168.168h-4.155c-.112,0-.157-.045-.157-.168v-2.162c0-.682.616-.906.918-1.008l2.085-.693c.212-.068.647-.269.647-.785v-1.129c0-.662-.312-1.087-1.5-1.087-1.164,0-1.489.425-1.489,1.087v.514c0,.123-.045.179-.156.179h-.45c-.121,0-.167-.056-.167-.179v-.639c0-.896.459-1.634,2.262-1.634,1.815,0,2.296.738,2.296,1.634v1.243c0,.897-.649,1.266-1.008,1.379l-1.903.604c-.269.079-.74.246-.74.74v1.422h3.517ZM140.226,43.441v1.209c0,.628-.349,1.018-1.468,1.018-1.188,0-1.489-.424-1.489-1.075v-1.152c0-.651.301-1.075,1.489-1.075,1.176,0,1.468.424,1.468,1.075ZM141.02,43.339c0-.896-.447-1.634-2.262-1.634-1.825,0-2.273.738-2.273,1.634v1.355c0,.897.47,1.637,2.173,1.637.851,0,1.332-.215,1.568-.55v2.038c0,.56-.269,1.02-1.445,1.02s-1.433-.482-1.433-1.02v-.1l-.158-.168h-.46l-.155.168v.201c0,.773.403,1.579,2.206,1.579,1.824,0,2.239-.794,2.239-1.579v-4.581ZM133.092,41.76c.067-.011.156.011.156.147v6.82h1.77l.168.156v.358c0,.123-.056.168-.168.168h-4.356c-.112,0-.169-.045-.169-.168v-.358l.169-.156h1.79v-6.093l-1.78.414-.167-.134v-.381l.167-.19,2.42-.583ZM126.429,49.409c.111,0,.168-.045.168-.168v-.358l-.168-.156h-3.326v-2.979h2.99c.122,0,.167-.046.167-.169v-.324c0-.123-.045-.168-.167-.168h-2.99v-2.61h3.192c.111,0,.168-.045.168-.167v-.348c0-.123-.057-.168-.168-.168h-3.819l-.158.168v7.279l.147.168h3.964ZM120.729,47.864c0,.897-.515,1.635-2.363,1.635s-2.362-.738-2.362-1.635v-4.525c0-.896.514-1.634,2.362-1.634s2.363.738,2.363,1.634v.571c0,.124-.045.18-.155.18h-.45c-.123,0-.167-.056-.167-.18v-.446c0-.651-.392-1.076-1.579-1.076s-1.58.425-1.58,1.076v4.277c0,.65.393,1.075,1.58,1.075s1.579-.425,1.579-1.075v-.594c0-.111.044-.168.167-.168h.45l.155.168v.717ZM114.101,41.962c0-.112-.034-.168-.157-.168h-.425l-.157.168v5.913s-.248-.514-.337-.672l-3.034-5.342-.134-.067h-.425c-.125,0-.17.056-.17.168v7.279c0,.112.045.168.17.168h.425l.155-.168v-5.902c.012.034.135.303.382.729l2.968,5.263.157.078h.425c.123,0,.157-.056.157-.168v-7.279ZM107.236,49.241c0,.112-.034.168-.158.168h-.469l-.157-.168v-7.279l.157-.168h.469c.124,0,.158.056.158.168v7.279ZM103.854,43.441v.424l.155.169h.46c.124,0,.169-.056.169-.169v-.526c0-.896-.549-1.634-2.329-1.634s-2.308.738-2.308,1.634v.628c0,.694.504,1.165.975,1.343l2.004.773c.437.169.93.404.93.987v.694c0,.649-.425,1.064-1.624,1.064-1.187,0-1.612-.415-1.612-1.064v-.516c0-.123-.045-.169-.158-.169h-.459c-.112,0-.155.046-.155.169v.616c0,.897.58,1.635,2.395,1.635s2.397-.738,2.397-1.635v-.963c0-.785-.56-1.233-1.164-1.456l-2.105-.795c-.281-.111-.651-.325-.651-.873v-.336c0-.651.37-1.064,1.546-1.064,1.165,0,1.534.413,1.534,1.064ZM221.206,15.385c.455,0,.731-.112.731-.612s-.276-.626-.731-.626h-1.05v1.238h1.05ZM220.156,18.026c0,.387-.134.67-.619.67s-.627-.227-.627-.67v-4.295c0-.318.111-.581.639-.581h1.567c1.125,0,2.072.333,2.072,1.623,0,.988-.501,1.485-1.381,1.529l.983,1.612.087.29c0,.305-.2.492-.657.492-.447,0-.585-.338-.765-.67l-.879-1.639h-.42v1.639ZM220.964,19.693c2.142,0,3.868-1.725,3.868-3.864s-1.726-3.861-3.868-3.861-3.863,1.723-3.863,3.861,1.727,3.864,3.863,3.864ZM220.964,10.718c2.825,0,5.115,2.291,5.115,5.111s-2.29,5.112-5.115,5.112-5.107-2.289-5.107-5.112,2.289-5.111,5.107-5.111Z"/>
</svg>